<svg width="1362" height="699" viewBox="0 0 1362 699" xmlns="http://www.w3.org/2000/svg"><title>Gridicons</title><g fill-rule="evenodd"><path d="M1004.71 486.842c3.126 13.534-4.834 26.274-18.37 29.398-13.533 3.125-26.272-4.835-29.397-18.37-3.124-13.534 4.836-26.273 18.37-29.398 13.535-3.124 26.274 4.836 29.398 18.37zm30.618-48.997l20.218 87.575c2.022 8.758-3.49 17.577-12.246 19.6l-127.382 29.407c-8.757 2.022-17.577-3.49-19.6-12.246L876.1 474.608c-2.02-8.758 3.49-17.577 12.25-19.6l-1.84-7.96 31.846-7.352 1.838 7.96 15.923-3.675 4.285-17.762 47.77-11.028 11.637 14.085 15.92-3.676c8.758-2.024 17.577 3.487 19.6 12.244zM923.565 480.42c-1.47-6.37-8.33-10.656-14.7-9.186-6.37 1.47-10.655 8.33-9.184 14.7 1.47 6.37 8.33 10.655 14.7 9.184 6.37-1.47 10.656-8.33 9.186-14.7zm97.07 2.746c-5.147-22.292-26.706-35.763-48.998-30.616-22.29 5.146-35.763 26.705-30.616 48.996 5.148 22.292 26.707 35.763 49 30.617 22.29-5.146 35.762-26.705 30.615-48.997z"/><path d="M536.157 231.76a30.886 30.886 0 0 1-12.567 6.436c-16.527 4.12-33.24-5.84-37.33-22.25-4.092-16.41 5.988-33.05 22.515-37.17 3.52-.878 7.02-.993 10.43-.664L494.057 77.256 603.774 49.9l10.315 41.373-19.95 4.974-2.908-11.663-69.82 17.408 22.135 88.778c-11.63 4-18.484 16.233-15.474 28.307a23.603 23.603 0 0 0 8.083 12.684zm63.745-112.406l1.662 6.666c-3.408-.328-6.907-.213-10.428.665-16.528 4.12-26.607 20.76-22.516 37.17 3.27 13.12 14.608 22.116 27.468 23.09a23.58 23.58 0 0 1-3.955-8.384c-3.183-12.76 4.657-25.703 17.51-28.91 2.74-.68 5.46-.77 8.112-.515l-8.035-32.228-9.818 2.448z" opacity=".5"/><path d="M538.064 113.074l19.558 78.443c-2.65-.255-5.373-.166-8.11.517-12.856 3.205-20.696 16.147-17.513 28.91 3.18 12.764 16.18 20.51 29.032 17.306 12.855-3.205 20.694-16.148 17.512-28.91l-19.205-77.027 54.304-13.54L621.68 151c-2.65-.253-5.374-.163-8.11.52-12.857 3.204-20.696 16.147-17.514 28.91 3.182 12.763 16.18 20.51 29.035 17.305 12.855-3.205 20.695-16.147 17.51-28.91l-19.2-77.028-85.336 21.276zm410.163 134.99l-42.096 15.322c-4.65 1.693-6.89 7.267-5.003 12.445l27.313 75.044 22.638-29.485 36.296 8.034-27.314-75.043c-1.884-5.177-7.186-8.006-11.833-6.315zM791.792 329.41l-62.03-8.717 2.215-15.77 62.03 8.718-2.215 15.77zm-2.217 15.772l-62.03-8.718-2.217 15.77 62.03 8.72 2.217-15.772zm37.036-42.29l-13.03 92.73-53.04 39.828-62.03-8.718c-8.57-1.204-14.537-9.096-13.337-17.635l17.377-123.642c1.2-8.54 9.11-14.48 17.68-13.276l93.045 13.075c8.568 1.205 14.536 9.096 13.336 17.635zm-25.66 75.785l10.9-77.54-93.574-13.15L700.84 412.05l46.785 6.575 4.36-31.016c1.204-8.57 9.158-14.53 17.774-13.318l31.19 4.384zm-353.013 245.82l-25.27 4.91-3.682-18.95c-.614-3.16-4.387-5.703-7.545-5.09l-50.537 9.824c-3.16.616-5.703 4.388-5.09 7.547l3.684 18.95-25.268 4.913c-3.79.736-5.828 3.754-5.09 7.544l6.14 31.586 126.34-24.56-6.14-31.584c-.736-3.79-3.754-5.826-7.544-5.09zm-37.903 7.367l-37.902 7.367-2.456-12.632 37.902-7.367 2.456 12.635zm4.734 58.082l-25.268 4.912-2.456-12.635-50.537 9.824 9.824 50.537c.738 3.79 3.756 5.826 7.547 5.09l113.708-22.104c3.79-.736 5.826-3.754 5.09-7.545l-9.824-50.537-50.536 9.824 2.455 12.634zM188.24 286.404L75.923 296.23c-8.865.776-15.417 8.584-14.642 17.45l9.828 112.314c.774 8.865 8.583 15.416 17.447 14.64l112.315-9.825c8.865-.778 15.417-8.586 14.642-17.45l-9.827-112.316c-.775-8.865-8.584-15.417-17.448-14.64zM85.116 318.81l41.26-3.608 3.608 41.258-41.258 3.61-3.61-41.26zm47.93 102.342c-11.388.996-21.438-7.437-22.434-18.824-.997-11.388 7.437-21.438 18.824-22.434 11.387-.997 21.438 7.437 22.434 18.824.997 11.387-7.436 21.438-18.823 22.434zm19.147-48.446l20.887-43.402 28.108 39.115-48.994 4.285zm726.2-376.238l59.263 41.496-78.9 112.683c-8.132-5.693-10.14-16.85-4.537-25.017l-.027-.027c-5.752 8.037-16.94 9.98-25.062 4.284-8.023-5.62-10.042-16.535-4.724-24.672l-.094-.067c-5.838 7.783-16.8 9.61-24.81 4l78.89-112.68zm75.7-17.65L928.35-39.206c-9.245-6.474-22.01-4.223-28.495 5.024l-13.162 18.798 59.263 41.497 13.162-18.798c6.474-9.246 4.223-22.012-5.024-28.495zm-155.14 156.328l5.33 30.228 30.23-5.33c-2.945-16.696-18.863-27.842-35.56-24.898zm415.263 239.552c1.31-7.424 8.396-12.386 15.82-11.077 7.422 1.31 12.384 8.398 11.076 15.82-1.31 7.424-8.396 12.387-15.82 11.078-7.423-1.31-12.385-8.396-11.076-15.82zm86.22-17.15l-18.97 107.58c-1.747 9.908-11.186 16.517-21.092 14.77l-143.444-25.293c-9.906-1.747-16.515-11.185-14.768-21.092l18.97-107.583c1.746-9.906 11.185-16.515 21.09-14.768l143.445 25.293c9.906 1.746 16.515 11.185 14.77 21.092zm-17.93-3.163l-143.444-25.293-11.768 66.737 42.886-33.52 42.496 68.04 17.152-14.076c8.628-7.094 21.556-4.814 27.228 4.8l10.55 17.816 14.9-84.505zM234.602 513.19l-1.567 17.91-18.02-1.577 1.566-17.91-108.123-9.46-1.567 17.91-18.022-1.576 1.567-17.91c-9.957-.87-18.722 6.438-19.588 16.333l-9.4 107.46c-.867 9.896 6.496 18.616 16.453 19.487l1.566-17.91 18.02 1.577-1.566 17.91 108.126 9.46 1.567-17.91 18.02 1.576-1.566 17.91c9.956.87 18.722-6.438 19.587-16.333l9.402-107.46c.866-9.896-6.497-18.616-16.454-19.487zm-133.346 98.477l-19.202-1.68 2.455-28.065 19.2 1.68-2.455 28.065zm3.877-44.314l-19.203-1.68 2.456-28.065 19.202 1.68-2.455 28.065zm29.654 35.34l4.652-53.176 39.03 30.206-43.684 22.97zm90.547 19.83l-19.202-1.68 2.455-28.066 19.203 1.68-2.456 28.065zm3.877-44.314l-19.2-1.68 2.455-28.068 19.203 1.68-2.456 28.066zm1050.73-34.963a41.332 41.332 0 0 0-6.638-5.634l1.038-12.81-20.004-5.803-5.85 11.467c-5.73.21-11.415 1.58-16.692 4.183l-10.452-7.328-14.97 14.626 6.863 10.828a42.347 42.347 0 0 0-4.708 16.725L1197 575.02l5.034 20.428 12.69-.602a41.542 41.542 0 0 0 5.334 6.907 41.362 41.362 0 0 0 6.636 5.634l-1.038 12.81L1245.66 626l5.85-11.467c5.73-.21 11.415-1.58 16.692-4.183l10.452 7.328 14.97-14.626-6.862-10.828c2.74-5.238 4.302-10.935 4.707-16.725l11.53-5.516-5.035-20.43-12.694.6a42.022 42.022 0 0 0-5.336-6.91l.004.002zm-14.697 44.645c-8.72 8.212-22.606 7.976-31.028-.528-8.422-8.504-8.18-22.044.542-30.256 8.72-8.212 22.606-7.976 31.028.528 8.422 8.504 8.18 22.044-.542 30.256z"/><path d="M1196.968 601.104a26.862 26.862 0 0 0-5.573-2.048l-2.428-8.855-14.107 1.32-.952 9.206a28.28 28.28 0 0 0-9.595 7.148l-8.406-2.19-5.984 13.697 6.97 5.47c-.48 4.224-.1 8.456 1.04 12.434l-5.993 6.698 8.122 12.382 7.916-3.707a27.64 27.64 0 0 0 5.052 3.24 26.878 26.878 0 0 0 5.574 2.05l2.428 8.854 14.106-1.32.952-9.204a28.274 28.274 0 0 0 9.596-7.148l8.405 2.19 5.987-13.697-6.97-5.47c.48-4.222.098-8.447-1.04-12.432l5.996-6.697-8.122-12.38-7.92 3.706a27.968 27.968 0 0 0-5.054-3.242h.003zm1.19 33.868c-3.39 7.67-12.024 10.984-19.295 7.408-7.27-3.576-10.414-12.684-7.023-20.352 3.39-7.67 12.025-10.984 19.296-7.408 7.27 3.576 10.413 12.684 7.023 20.352zm-36.993-71.075c-.91-.325-1.83-.536-2.744-.64l-1.626-4.158-6.592 1.54.05 4.543a13.968 13.968 0 0 0-4.143 4.093l-4.09-.53-2.083 7.05 3.59 2.22a16.033 16.033 0 0 0 1.167 5.987l-2.467 3.643 4.51 5.51 3.537-2.31c.796.507 1.653.93 2.563 1.256.91.325 1.83.536 2.744.64l1.628 4.158 6.59-1.54-.05-4.544a13.95 13.95 0 0 0 4.145-4.093l4.09.53 2.082-7.05-3.59-2.22a16.064 16.064 0 0 0-1.166-5.987l2.467-3.643-4.51-5.51-3.54 2.31a12.914 12.914 0 0 0-2.563-1.256h.002zm2.553 16.44c-1.206 3.97-5.19 6.14-8.9 4.85-3.713-1.29-5.742-5.55-4.536-9.523 1.206-3.97 5.19-6.142 8.9-4.852 3.712 1.29 5.742 5.552 4.536 9.524zM346.83 413.33l-21.846 2.296a5.494 5.494 0 0 0-4.888 6.036l4.592 43.696a5.494 5.494 0 0 0 6.036 4.888l21.848-2.297a5.495 5.495 0 0 0 4.888-6.038l-4.593-43.695a5.493 5.493 0 0 0-6.036-4.888zm-2.402 53.02l-6.07.64-.254-2.43 6.068-.636.256 2.427zm7.858-6.96l-21.848 2.296-3.954-37.627 21.847-2.298 3.957 37.626zm655.646-360.628l22.194 114.18c2.725 14.018 16.287 23.165 30.306 20.44l114.18-22.194 12.33 63.433 58.175-61.39a51.715 51.715 0 0 0 13.225-45.412l-22.05-113.444c-2.726-14.018-16.288-23.166-30.306-20.44l-177.613 34.523c-14.018 2.725-23.166 16.287-20.44 30.306zm-270.985 18.645c-10.354-2.2-20.814 5.753-23.37 17.77l-9.246 43.508c-1.53 7.21 2.26 14.123 8.474 15.443 6.212 1.32 12.452-3.46 13.984-10.67l9.248-43.508-7.46-1.586-9.25 43.51c-.51 2.405-2.6 3.993-4.672 3.553-2.073-.44-3.336-2.742-2.824-5.148l9.246-43.51c1.533-7.21 7.81-11.983 14.022-10.66 6.212 1.32 10.005 8.232 8.472 15.44l-9.363 44.053c-2.554 12.017-12.9 19.427-23.253 17.226-10.355-2.2-16.676-13.723-14.12-25.74l4.623-21.754-7.498-1.593-4.626 21.754c-3.576 16.82 5.275 32.953 19.77 36.034 14.492 3.08 29.103-8.065 32.678-24.885l9.248-43.508c2.555-12.017-3.728-23.53-14.083-25.73zm-529.81-82.762c47.43 5.824 81.297 49.173 75.474 96.6-5.82 47.43-49.17 81.297-96.6 75.474-47.426-5.826-81.295-49.175-75.47-96.603 5.822-47.428 49.172-81.296 96.6-75.473zm3.167-21.16C150.752 6.17 96.55 48.517 89.24 108.07c-7.313 59.552 35.033 113.752 94.585 121.064 59.552 7.313 113.753-35.034 121.065-94.585 7.312-59.554-35.034-113.755-94.586-121.067zm42.283 103.64l-43.353-5.323 5.323-43.354-21.677-2.66-5.323 43.352-43.354-5.323-2.66 21.677 43.352 5.323-5.323 43.353 21.677 2.662 5.32-43.353 43.355 5.32 2.66-21.676zm59.22 203.883L335 344.194A16.35 16.35 0 0 1 323.403 349C314.34 349 307 341.66 307 332.597c0-4.527 1.837-8.628 4.806-11.597v.008zm71.583 44.265L377.656 371 286 279.34l5.726-5.736 8.94 1.274c6.115.876 13.707-.99 16.846-4.137l31.51-31.503c18.98-18.98 49.763-18.98 68.743 0 18.98 18.98 18.98 49.764 0 68.745l-31.512 31.523c-3.147 3.147-5.012 10.73-4.136 16.848l1.273 8.923zM495.034 461.5c13.644 3.4 27.697-5.786 31.367-20.507l16.625-66.673c3.67-14.72-4.424-29.43-18.068-32.832-13.656-3.405-27.696 5.785-31.367 20.507l-16.624 66.672c-3.67 14.722 4.412 29.427 18.068 32.832zm56.036-14.148c-7.348 29.47-35.42 47.822-62.734 41.013-27.313-6.81-43.484-36.195-36.136-65.664l-24.718-6.16c-9.88 39.63 8.68 79.114 42.145 94.213l-10.273 41.204 24.717 6.163 10.276-41.205c36.638 2.365 71.568-23.797 81.442-63.4l-24.717-6.163zm47.93 47.58l9.288 75.643c.73 5.944 6.162 10.213 12.07 9.487l75.216-9.235c5.91-.726 10.148-6.182 9.418-12.125l-9.288-75.642L599 494.933zm44.007 55.578l-26.374 3.238-.72-5.86 26.374-3.24.72 5.862zm10.462-11.696l-38.098 4.678-.72-5.86 38.096-4.68.72 5.862zm-1.44-11.722l-38.097 4.678-.72-5.86 38.096-4.68.72 5.862zm39.15 16.016l-26.376 3.238-3.238-26.374 26.374-3.238 3.24 26.374zm-4.68-38.096l-74.726 9.175-1.26-10.256 74.727-9.174 1.26 10.257zM447.936-74.504l-25.27 4.912-3.682-18.95c-.614-3.16-4.387-5.704-7.545-5.09l-50.537 9.823c-3.16.616-5.703 4.388-5.09 7.547l3.684 18.95L334.23-52.4c-3.79.736-5.827 3.754-5.09 7.544l6.14 31.586 126.34-24.56-6.14-31.584c-.737-3.79-3.755-5.826-7.545-5.09zm-37.903 7.368l-37.902 7.367-2.456-12.632 37.902-7.367 2.456 12.635zm4.734 58.082L389.5-4.142l-2.456-12.635-50.537 9.824 9.824 50.537c.738 3.79 3.756 5.826 7.547 5.09L467.584 26.57c3.79-.736 5.826-3.754 5.09-7.545l-9.824-50.537-50.537 9.824 2.455 12.634zm463.625 704.522l59.263 41.496-78.9 112.683c-8.132-5.693-10.14-16.85-4.537-25.017l-.027-.027c-5.752 8.037-16.94 9.98-25.062 4.284-8.023-5.62-10.042-16.535-4.724-24.672l-.094-.067c-5.838 7.783-16.8 9.61-24.81 4l78.89-112.68zm75.7-17.65l-25.743-18.025c-9.245-6.474-22.01-4.223-28.495 5.024l-13.162 18.798 59.263 41.497 13.162-18.798c6.474-9.246 4.223-22.012-5.024-28.495zm-155.14 156.328l5.33 30.228 30.23-5.33c-2.945-16.696-18.863-27.842-35.56-24.898zM756.378-55.38L723.515 6.428l-12.36-6.572 32.862-61.807 12.36 6.572zm-33.83-25.834l-3.296 6.196c-5.37 10.1-5.203 21.595-.74 31.216l16.396-30.84c3.634-6.834 12.134-9.445 18.95-5.82l12.362 6.573c6.818 3.627 9.406 12.133 5.772 18.967l-16.398 30.84c10.475-1.687 20.094-7.97 25.465-18.07l3.292-6.197c7.282-13.695 2.116-30.67-11.543-37.932l-12.36-6.573c-13.66-7.263-30.623-2.053-37.904 11.64zM694.722 30.758l12.36 6.572c13.66 7.263 30.62 2.054 37.902-11.64l3.295-6.197c5.37-10.1 5.202-21.595.74-31.216l-16.397 30.84c-3.634 6.835-12.134 9.445-18.95 5.82l-12.362-6.572c-6.816-3.625-9.405-12.13-5.77-18.966l16.397-30.84c-10.47 1.68-20.094 7.97-25.464 18.07l-3.295 6.196c-7.282 13.694-2.117 30.668 11.543 37.93zm61.656 612.862l-32.863 61.807-12.36-6.572 32.862-61.807 12.36 6.573zm-33.83-25.834l-3.296 6.196c-5.37 10.1-5.203 21.595-.74 31.216l16.396-30.84c3.634-6.834 12.134-9.445 18.95-5.82l12.362 6.573c6.818 3.627 9.406 12.133 5.772 18.967l-16.398 30.84c10.475-1.687 20.094-7.97 25.465-18.07l3.292-6.197c7.282-13.695 2.116-30.67-11.543-37.932l-12.36-6.573c-13.66-7.263-30.623-2.053-37.904 11.64zm-27.825 111.972l12.36 6.572c13.66 7.263 30.62 2.054 37.902-11.64l3.295-6.197c5.37-10.1 5.203-21.595.742-31.216l-16.398 30.84c-3.634 6.835-12.134 9.445-18.95 5.82l-12.362-6.572c-6.817-3.625-9.406-12.13-5.772-18.966l16.398-30.84c-10.47 1.68-20.094 7.97-25.464 18.07l-3.295 6.196c-7.283 13.694-2.118 30.668 11.542 37.93z"/></g></svg>